<svg width="30" height="30" viewBox="0 0 30 30" fill="none" xmlns="http://www.w3.org/2000/svg">
<g clip-path="url(#clip0_428_2582)">
<path d="M21.8752 2.39648C20.4676 2.41838 19.0908 2.8113 17.8836 3.53557C16.6765 4.25985 15.6819 5.28982 15.0002 6.52148C14.3185 5.28982 13.3239 4.25985 12.1167 3.53557C10.9096 2.8113 9.53275 2.41838 8.12519 2.39648C5.88137 2.49397 3.76732 3.47555 2.24492 5.12678C0.722516 6.778 -0.0844962 8.96464 0.000192003 11.209C0.000192003 16.8927 5.98269 23.1002 11.0002 27.309C12.1205 28.2504 13.5369 28.7665 15.0002 28.7665C16.4635 28.7665 17.8799 28.2504 19.0002 27.309C24.0177 23.1002 30.0002 16.8927 30.0002 11.209C30.0849 8.96464 29.2779 6.778 27.7555 5.12678C26.2331 3.47555 24.119 2.49397 21.8752 2.39648ZM17.3939 25.3965C16.7239 25.9607 15.8761 26.2701 15.0002 26.2701C14.1242 26.2701 13.2765 25.9607 12.6064 25.3965C6.18394 20.0077 2.50019 14.8377 2.50019 11.209C2.41474 9.62738 2.95815 8.07615 4.0119 6.89361C5.06564 5.71107 6.54423 4.99317 8.12519 4.89648C9.70615 4.99317 11.1847 5.71107 12.2385 6.89361C13.2922 8.07615 13.8356 9.62738 13.7502 11.209C13.7502 11.5405 13.8819 11.8584 14.1163 12.0929C14.3507 12.3273 14.6687 12.459 15.0002 12.459C15.3317 12.459 15.6497 12.3273 15.8841 12.0929C16.1185 11.8584 16.2502 11.5405 16.2502 11.209C16.1647 9.62738 16.7081 8.07615 17.7619 6.89361C18.8156 5.71107 20.2942 4.99317 21.8752 4.89648C23.4561 4.99317 24.9347 5.71107 25.9885 6.89361C27.0422 8.07615 27.5856 9.62738 27.5002 11.209C27.5002 14.8377 23.8164 20.0077 17.3939 25.3915V25.3965Z" fill="#0B3F37"/>
</g>
<defs>
<clipPath id="clip0_428_2582">
<rect width="30" height="30" fill="white"/>
</clipPath>
</defs>
</svg>
