<svg width="30" height="30" viewBox="0 0 30 30" fill="none" xmlns="http://www.w3.org/2000/svg">
<g clip-path="url(#clip0_428_2366)">
<path fill-rule="evenodd" clip-rule="evenodd" d="M17.8836 3.53557C19.0908 2.8113 20.4676 2.41838 21.8752 2.39648C24.119 2.49397 26.2331 3.47555 27.7555 5.12678C29.2779 6.778 30.0849 8.96464 30.0002 11.209C30.0002 16.8927 24.0177 23.1002 19.0002 27.309C17.8799 28.2504 16.4635 28.7665 15.0002 28.7665C13.5369 28.7665 12.1205 28.2504 11.0002 27.309C5.98269 23.1002 0.000192003 16.8927 0.000192003 11.209C-0.0844962 8.96464 0.722516 6.778 2.24492 5.12678C3.76732 3.47555 5.88137 2.49397 8.12519 2.39648C9.53275 2.41838 10.9096 2.8113 12.1167 3.53557C13.3239 4.25985 14.3185 5.28982 15.0002 6.52148C15.6819 5.28982 16.6765 4.25985 17.8836 3.53557Z" fill="url(#paint0_linear_428_2366)"/>
</g>
<defs>
<linearGradient id="paint0_linear_428_2366" x1="7.57322" y1="-4.39239" x2="29.8512" y2="-3.41749" gradientUnits="userSpaceOnUse">
<stop stop-color="#5E3928"/>
<stop offset="0.911458" stop-color="#E4A16F"/>
</linearGradient>
<clipPath id="clip0_428_2366">
<rect width="30" height="30" fill="white"/>
</clipPath>
</defs>
</svg>
